<svg width="21" height="22" viewBox="0 0 21 22" fill="none" xmlns="http://www.w3.org/2000/svg">
<path d="M10.5 2.24995C9.57174 2.24995 8.6815 2.6187 8.02513 3.27508C7.36875 3.93146 7 4.8217 7 5.74995C7 6.67821 7.36875 7.56845 8.02513 8.22483C8.6815 8.88121 9.57174 9.24995 10.5 9.24995C11.4283 9.24995 12.3185 8.88121 12.9749 8.22483C13.6313 7.56845 14 6.67821 14 5.74995C14 4.8217 13.6313 3.93146 12.9749 3.27508C12.3185 2.6187 11.4283 2.24995 10.5 2.24995ZM8.75 5.74995C8.75 5.28583 8.93437 4.84071 9.26256 4.51252C9.59075 4.18433 10.0359 3.99995 10.5 3.99995C10.9641 3.99995 11.4092 4.18433 11.7374 4.51252C12.0656 4.84071 12.25 5.28583 12.25 5.74995C12.25 6.21408 12.0656 6.6592 11.7374 6.98739C11.4092 7.31558 10.9641 7.49995 10.5 7.49995C10.0359 7.49995 9.59075 7.31558 9.26256 6.98739C8.93437 6.6592 8.75 6.21408 8.75 5.74995ZM14.875 11H6.125C5.42881 11 4.76113 11.2765 4.26884 11.7688C3.77656 12.2611 3.5 12.9288 3.5 13.625C3.5 15.578 4.30325 17.1425 5.621 18.2012C6.91775 19.2425 8.65725 19.75 10.5 19.75C12.3427 19.75 14.0823 19.2425 15.379 18.2012C16.695 17.1425 17.5 15.578 17.5 13.625C17.5 12.9288 17.2234 12.2611 16.7312 11.7688C16.2389 11.2765 15.5712 11 14.875 11ZM6.125 12.75H14.875C15.1071 12.75 15.3296 12.8421 15.4937 13.0062C15.6578 13.1703 15.75 13.3929 15.75 13.625C15.75 15.0547 15.1812 16.1152 14.2835 16.8362C13.363 17.5747 12.04 18 10.5 18C8.96 18 7.637 17.5747 6.7165 16.8362C5.81875 16.1152 5.25 15.0547 5.25 13.625C5.25 13.3929 5.34219 13.1703 5.50628 13.0062C5.67038 12.8421 5.89294 12.75 6.125 12.75Z" fill="#EC8190"/>
</svg>
