<svg width="24" height="25" viewBox="0 0 24 25" fill="none" xmlns="http://www.w3.org/2000/svg">
<path d="M6.61638 5.3793C6.53027 5.32825 6.43219 5.3009 6.33209 5.30002C6.232 5.29915 6.13345 5.32479 6.04647 5.37433C5.95948 5.42387 5.88716 5.49554 5.83685 5.58208C5.78654 5.66862 5.76003 5.76693 5.76001 5.86703V18.9999C5.76003 19.1 5.78654 19.1983 5.83685 19.2848C5.88716 19.3714 5.95948 19.443 6.04647 19.4926C6.13345 19.5421 6.232 19.5678 6.33209 19.5669C6.43219 19.566 6.53027 19.5387 6.61638 19.4876L17.6972 12.9212C17.7818 12.871 17.8519 12.7996 17.9006 12.7141C17.9493 12.6286 17.9749 12.5319 17.9749 12.4335C17.9749 12.335 17.9493 12.2383 17.9006 12.1528C17.8519 12.0673 17.7818 11.9959 17.6972 11.9457L6.61638 5.3793Z" fill="white"/>
</svg>
