<svg width="24" height="24" viewBox="0 0 24 24" fill="none" xmlns="http://www.w3.org/2000/svg">
<path fill-rule="evenodd" clip-rule="evenodd" d="M6.51992 16.4194C6.22703 16.7123 6.22703 17.1872 6.51992 17.4801C6.81281 17.773 7.28769 17.773 7.58058 17.4801L12 13.0607L16.4194 17.4801C16.7123 17.773 17.1872 17.773 17.4801 17.4801C17.773 17.1872 17.773 16.7123 17.4801 16.4194L13.0607 12L17.4801 7.58059C17.773 7.2877 17.773 6.81283 17.4801 6.51993C17.1872 6.22704 16.7123 6.22704 16.4194 6.51993L12 10.9394L7.58058 6.51993C7.28769 6.22704 6.81282 6.22704 6.51992 6.51993C6.22703 6.81283 6.22703 7.2877 6.51992 7.58059L10.9393 12L6.51992 16.4194Z" fill="#8B94A7"/>
</svg>
