<svg width="21" height="22" viewBox="0 0 21 22" fill="none" xmlns="http://www.w3.org/2000/svg">
<g clip-path="url(#clip0_14_220)">
<path fill-rule="evenodd" clip-rule="evenodd" d="M10.5 2.25C12.5886 2.25 14.5916 3.07968 16.0685 4.55653C17.5453 6.03338 18.375 8.03642 18.375 10.125C18.375 12.8147 16.9085 15.0163 15.3633 16.5956C14.5911 17.376 13.7487 18.0837 12.8468 18.7096L12.474 18.9634L12.299 19.0798L11.9691 19.2898L11.6751 19.4691L11.3111 19.6809C11.0639 19.8216 10.7844 19.8955 10.5 19.8955C10.2156 19.8955 9.93606 19.8216 9.68888 19.6809L9.32487 19.4691L8.86987 19.1891L8.70187 19.0798L8.34312 18.8409C7.37011 18.1823 6.46368 17.4303 5.63675 16.5956C4.0915 15.0154 2.625 12.8147 2.625 10.125C2.625 8.03642 3.45468 6.03338 4.93153 4.55653C6.40838 3.07968 8.41142 2.25 10.5 2.25ZM10.5 4C8.87555 4 7.31763 4.64531 6.16897 5.79397C5.02031 6.94263 4.375 8.50055 4.375 10.125C4.375 12.1567 5.488 13.94 6.88713 15.3715C7.48879 15.9804 8.13902 16.5393 8.83138 17.0428L9.23212 17.328C9.36162 17.4181 9.48587 17.5021 9.60575 17.58L9.947 17.7987L10.2471 17.9816L10.5 18.1295L10.8981 17.8941L11.2192 17.6929C11.3899 17.5844 11.5736 17.4628 11.7679 17.328L12.1686 17.0428C12.861 16.5393 13.5112 15.9804 14.1129 15.3715C15.512 13.9409 16.625 12.1567 16.625 10.125C16.625 8.50055 15.9797 6.94263 14.831 5.79397C13.6824 4.64531 12.1245 4 10.5 4ZM10.5 6.625C11.4283 6.625 12.3185 6.99375 12.9749 7.65013C13.6313 8.3065 14 9.19674 14 10.125C14 11.0533 13.6313 11.9435 12.9749 12.5999C12.3185 13.2563 11.4283 13.625 10.5 13.625C9.57174 13.625 8.6815 13.2563 8.02513 12.5999C7.36875 11.9435 7 11.0533 7 10.125C7 9.19674 7.36875 8.3065 8.02513 7.65013C8.6815 6.99375 9.57174 6.625 10.5 6.625ZM10.5 8.375C10.0359 8.375 9.59075 8.55937 9.26256 8.88756C8.93437 9.21575 8.75 9.66087 8.75 10.125C8.75 10.5891 8.93437 11.0342 9.26256 11.3624C9.59075 11.6906 10.0359 11.875 10.5 11.875C10.9641 11.875 11.4092 11.6906 11.7374 11.3624C12.0656 11.0342 12.25 10.5891 12.25 10.125C12.25 9.66087 12.0656 9.21575 11.7374 8.88756C11.4092 8.55937 10.9641 8.375 10.5 8.375Z" fill="#EC8190"/>
</g>
<defs>
<clipPath id="clip0_14_220">
<rect width="21" height="21" fill="white" transform="translate(0 0.5)"/>
</clipPath>
</defs>
</svg>
