<svg width="21" height="22" viewBox="0 0 21 22" fill="none" xmlns="http://www.w3.org/2000/svg">
<g clip-path="url(#clip0_14_206)">
<path fill-rule="evenodd" clip-rule="evenodd" d="M16.125 8.125C16.7946 8.12496 17.4388 8.38078 17.926 8.84012C18.4131 9.29946 18.7063 9.92759 18.7456 10.596L18.75 10.75V13.375C18.75 13.935 18.4184 14.3716 17.9783 14.5711L17.875 14.6122V17.75C17.8751 18.1915 17.7084 18.6167 17.4082 18.9405C17.108 19.2642 16.6965 19.4625 16.2562 19.4956L16.125 19.5H5.625C5.1835 19.5001 4.75825 19.3334 4.43452 19.0332C4.11079 18.733 3.91249 18.3215 3.87938 17.8812L3.875 17.75V14.6131C3.63878 14.5309 3.43124 14.3823 3.27716 14.1853C3.12309 13.9882 3.029 13.751 3.00612 13.5019L3 13.375V10.75C2.99996 10.0804 3.25578 9.43617 3.71512 8.94902C4.17446 8.46187 4.80259 8.16866 5.471 8.12937L5.625 8.125H16.125ZM16.0664 13.9875C15.9306 13.8856 15.7682 13.8254 15.5989 13.8143C15.4295 13.8031 15.2606 13.8414 15.1126 13.9245L15.0164 13.9875L14.7836 14.1625C14.3542 14.4847 13.8364 14.6675 13.2999 14.6863C12.7634 14.705 12.2341 14.5589 11.7832 14.2675L11.6336 14.1625L11.4 13.9875C11.2643 13.8856 11.1018 13.8254 10.9325 13.8143C10.7631 13.8031 10.5942 13.8414 10.4462 13.9245L10.35 13.9875L10.1164 14.1625C9.68708 14.4845 9.16942 14.6672 8.63311 14.686C8.09681 14.7047 7.56763 14.5587 7.11687 14.2675L6.96637 14.1625L6.73363 13.9875C6.59788 13.8856 6.43545 13.8254 6.26611 13.8143C6.09677 13.8031 5.92783 13.8414 5.77988 13.9245L5.68362 13.9875L5.625 14.0312V17.75H16.125V14.0312L16.0664 13.9875ZM16.125 9.875H5.625C5.39294 9.875 5.17038 9.96719 5.00628 10.1313C4.84219 10.2954 4.75 10.5179 4.75 10.75V12.5044C5.20202 12.2024 5.73664 12.0482 6.28004 12.0631C6.82344 12.078 7.34882 12.2612 7.78363 12.5875L8.01637 12.7625C8.16783 12.8761 8.35205 12.9375 8.54138 12.9375C8.7307 12.9375 8.91492 12.8761 9.06637 12.7625L9.3 12.5875C9.75438 12.2467 10.307 12.0625 10.875 12.0625C11.443 12.0625 11.9956 12.2467 12.45 12.5875L12.6836 12.7625C12.8351 12.8761 13.0193 12.9375 13.2086 12.9375C13.3979 12.9375 13.5822 12.8761 13.7336 12.7625L13.9664 12.5875C14.4012 12.2612 14.9266 12.078 15.47 12.0631C16.0134 12.0482 16.548 12.2024 17 12.5044V10.75C17 10.5179 16.9078 10.2954 16.7437 10.1313C16.5796 9.96719 16.3571 9.875 16.125 9.875ZM11.4 2.175C11.7617 2.45757 12.0976 2.77177 12.4036 3.11388C12.8621 3.62925 13.5 4.49813 13.5 5.5C13.5 6.19619 13.2234 6.86387 12.7312 7.35616C12.2389 7.84844 11.5712 8.125 10.875 8.125C10.1788 8.125 9.51113 7.84844 9.01884 7.35616C8.52656 6.86387 8.25 6.19619 8.25 5.5C8.25 4.49813 8.88875 3.62925 9.34638 3.11388C9.65241 2.77177 9.98827 2.45757 10.35 2.175C10.5015 2.06141 10.6857 2 10.875 2C11.0643 2 11.2485 2.06141 11.4 2.175ZM10.875 4.04225C10.799 4.11827 10.7251 4.19647 10.6536 4.27675C10.2371 4.74575 10 5.18937 10 5.5C10 5.73206 10.0922 5.95462 10.2563 6.11872C10.4204 6.28281 10.6429 6.375 10.875 6.375C11.1071 6.375 11.3296 6.28281 11.4937 6.11872C11.6578 5.95462 11.75 5.73206 11.75 5.5C11.75 5.18937 11.5138 4.74575 11.0964 4.27675C11.0249 4.19647 10.951 4.11827 10.875 4.04225Z" fill="#EC8190"/>
</g>
<defs>
<clipPath id="clip0_14_206">
<rect width="21" height="21" fill="white" transform="translate(0 0.5)"/>
</clipPath>
</defs>
</svg>
