<svg width="24" height="24" viewBox="0 0 24 24" fill="none" xmlns="http://www.w3.org/2000/svg">
<path d="M20.6314 16.5881C20.1008 15.675 19.3123 13.0997 19.3123 9.75C19.3123 7.81061 18.5419 5.95064 17.1706 4.57928C15.7992 3.20792 13.9392 2.4375 11.9998 2.4375C10.0604 2.4375 8.20048 3.20792 6.82912 4.57928C5.45776 5.95064 4.68734 7.81061 4.68734 9.75C4.68734 13.1006 3.89797 15.675 3.36734 16.5881C3.25092 16.7875 3.18914 17.014 3.18824 17.2449C3.18734 17.4758 3.24736 17.7028 3.36223 17.903C3.4771 18.1033 3.64276 18.2697 3.8425 18.3855C4.04223 18.5013 4.26897 18.5623 4.49984 18.5625H8.48234C8.61896 19.3964 9.04753 20.1545 9.69152 20.7016C10.3355 21.2486 11.153 21.549 11.998 21.549C12.8429 21.549 13.6604 21.2486 14.3044 20.7016C14.9484 20.1545 15.377 19.3964 15.5136 18.5625H19.4998C19.7305 18.562 19.9571 18.5007 20.1565 18.3848C20.356 18.2689 20.5214 18.1024 20.636 17.9022C20.7507 17.702 20.8105 17.4751 20.8096 17.2444C20.8086 17.0137 20.7468 16.7874 20.6305 16.5881H20.6314ZM11.9998 20.4375C11.4513 20.4373 10.9189 20.2521 10.4886 19.9119C10.0584 19.5716 9.75549 19.0962 9.6289 18.5625H14.3708C14.2442 19.0962 13.9413 19.5716 13.511 19.9119C13.0808 20.2521 12.5484 20.4373 11.9998 20.4375ZM19.6602 17.3438C19.6447 17.3725 19.6217 17.3964 19.5936 17.4129C19.5655 17.4295 19.5334 17.438 19.5008 17.4375H4.49984C4.46724 17.438 4.43514 17.4295 4.40704 17.4129C4.37893 17.3964 4.35591 17.3725 4.34047 17.3438C4.32401 17.3152 4.31535 17.2829 4.31535 17.25C4.31535 17.2171 4.32401 17.1848 4.34047 17.1563C5.05015 15.9375 5.81234 13.0959 5.81234 9.75C5.81234 8.10897 6.46424 6.53516 7.62462 5.37478C8.785 4.2144 10.3588 3.5625 11.9998 3.5625C13.6409 3.5625 15.2147 4.2144 16.3751 5.37478C17.5354 6.53516 18.1873 8.10897 18.1873 9.75C18.1873 13.095 18.9505 15.9328 19.6602 17.1563C19.6766 17.1848 19.6853 17.2171 19.6853 17.25C19.6853 17.2829 19.6766 17.3152 19.6602 17.3438Z" fill="#16181D"/>
</svg>
